# xmcd
# 
# Track frame offsets:
#     150
#     4460
#     21743
#     39268
#     55750
#     73835
#     93328
#     109355
#     125915
#     141675
#     157805
#     188223
#     206308
# 
# Disc length: 2844
# 
# Revision: 16
# Processed by: cddbd v1.5.2PL0 Copyright (c) Steve Scherf et al.
# Submitted via: fre:ac v1.0.17
# 
DISCID=c20b1a0d
DTITLE=E-Type - Last Man Standing
DYEAR=1998
DGENRE=Dance
TTITLE0=Ultimos Homo Statans (Last Man Standing)
TTITLE1=Angels Crying
TTITLE2=Here I Go Again
TTITLE3=Princess Of Egypt
TTITLE4=Hold Your Horses
TTITLE5=I'm Flying
TTITLE6=Morning Light
TTITLE7=I'll Always Be Around
TTITLE8=Walk Away
TTITLE9=I'll Find A Way
TTITLE10=So Far Away
TTITLE11=Angels Country
TTITLE12=Pop Preludium
EXTD=YEAR: 1998
EXTT0=
EXTT1=
EXTT2=
EXTT3=
EXTT4=
EXTT5=
EXTT6=
EXTT7=
EXTT8=
EXTT9=
EXTT10=
EXTT11=
EXTT12=
PLAYORDER=
